# xmcd
#
# Track frame offsets:
#	150
#	12565
#	25362
#	35362
#	47262
#	58325
#	68800
#	81440
#	89107
#	101005
#	109855
#	118247
#	129415
#	139142
#	147730
#	158530
#	164575
#	172270
#	182885
#	190837
#	202992
#
# Disc length: 2839 seconds
#
# Revision: 0
# Processed by: cddbd v1.5.2PL0 Copyright (c) Steve Scherf et al.
# Submitted via: dBpowerAMP V4.0
#
DISCID=3e0b1515
DTITLE=Johnny Cash - The Complete Early Hits Collection CD1
DYEAR=2006
DGENRE=Country
TTITLE0=I Walk The Line
TTITLE1=Folsom Prison Blues
TTITLE2=Ballad Of A Teenage Queen
TTITLE3=So Doggone Lonesome
TTITLE4=Cry, Cry, Cry
TTITLE5=There You Go
TTITLE6=Next In Line
TTITLE7=Come In Stranger
TTITLE8=Thanks A Lot
TTITLE9=Katy Too
TTITLE10=Guess Things Happen That Way
TTITLE11=Oh Lonesome Me
TTITLE12=It's Just About Time
TTITLE13=I Forgot To Remember To Forget
TTITLE14=I Just Thought You'd Like To Know
TTITLE15=You Tell Me
TTITLE16=Hey Good Lookin'
TTITLE17=Cold, Cold Heart
TTITLE18=I Can't Help It (If I'm Still In Love With You)
TTITLE19=Goodnight Irene
TTITLE20=Goodbye Little Darlin'
EXTD=
EXTT0=
EXTT1=
EXTT2=
EXTT3=
EXTT4=
EXTT5=
EXTT6=
EXTT7=
EXTT8=
EXTT9=
EXTT10=
EXTT11=
EXTT12=
EXTT13=
EXTT14=
EXTT15=
EXTT16=
EXTT17=
EXTT18=
EXTT19=
EXTT20=
PLAYORDER=
